<svg xmlns="http://www.w3.org/2000/svg" version="1.1" xmlns:xlink="http://www.w3.org/1999/xlink" xmlns:svgjs="http://svgjs.com/svgjs" width="83" height="60"><svg width="83" height="60" viewBox="0 0 83 60" fill="none" xmlns="http://www.w3.org/2000/svg">
<path d="M61.0163 49.8298C66.2081 48.0711 71.1923 45.7651 75.8819 42.9518C81.3956 38.2598 79.9804 37.5381 81.8336 32.988C86.0087 22.7223 77.8116 23.93 75.4713 21.5357C73.5424 19.6002 72.2596 17.1298 71.7953 14.4555C71.7953 13.1391 74.7022 7.51101 71.7953 6.46935C68.8884 5.42768 64.9281 8.88479 61.1389 9.68189C57.3498 10.479 56.89 9.07807 54.706 7.41141C52.522 5.74474 44.9192 -0.840446 34.5259 0.0895039C24.1326 1.01945 18.5975 2.58048 14.502 12.3419C11.8856 17.7473 11.2671 23.8838 12.7532 29.691C14.1805 33.2262 15.9998 36.5951 18.1781 39.7362C20.3498 43.6885 17.6757 52.2815 18.1781 53.764C18.6804 55.2464 22.356 55.7084 23.4986 55.4095C24.6411 55.1106 27.536 48.2145 29.475 47.9367C30.6998 47.6973 31.9677 47.7887 33.1442 48.2011C34.3208 48.6136 35.3623 49.3317 36.1588 50.2797C38.6093 52.5381 40.049 57.4837 41.0414 58.6401C42.0339 59.7965 48.442 58.3383 49.0056 57.7525C49.5692 57.1668 48.2797 52.049 48.7483 51.2277C49.217 50.4065 53.343 51.0043 53.7596 51.2277C54.1762 51.4512 55.8792 56.2941 56.6511 56.6112C57.4231 56.9282 61.9843 54.3316 62.6275 53.7609C63.2708 53.1903 61.0163 49.8298 61.0163 49.8298Z" fill="#FF4BB7"></path>
<path d="M15.1181 13.5588C14.2509 11.8879 12.7945 10.5866 11.0226 9.89939C9.57922 9.81734 8.14276 10.1511 6.8885 10.8599C5.63425 11.5686 4.6163 12.6218 3.95884 13.891C3.73791 14.7111 3.85241 15.584 4.27742 16.3219C4.70243 17.0598 5.40422 17.6039 6.2319 17.8373C7.01973 18.0202 7.84455 17.9734 8.60592 17.7027C9.36729 17.432 10.0321 16.949 10.52 16.3125C10.8834 15.6776 11.0248 14.9426 10.9224 14.2207C10.82 13.4988 10.4796 12.8302 9.95353 12.3179C9.27636 11.6943 8.47383 11.218 7.59783 10.92C6.72183 10.6219 5.79183 10.5088 4.86858 10.5879C4.06991 10.6382 3.29704 10.8858 2.62095 11.3079C1.94486 11.73 1.38747 12.3131 1 13.0033" stroke="#FF4BB7" stroke-width="2" stroke-linecap="round"></path>
</svg><style>@media (prefers-color-scheme: light) { :root { filter: none; } }
@media (prefers-color-scheme: dark) { :root { filter: contrast(0.8333333333333334) brightness(1.7); } }
</style></svg>