<svg xmlns="http://www.w3.org/2000/svg" width="104.175" height="80.75" viewBox="0 0 104.175 80.75">
  <g id="Group_51" data-name="Group 51" transform="translate(-533.863 -522.076)">
    <path id="Path_89" data-name="Path 89" d="M40.847-.487C59.661-.926,80.835,5.607,89.489,20.466S96.651,57.228,81.632,72.1s-39.028,5.95-61.653,0S-7.784,56.074-8.869,48.3-10.5,34.908,1.933,22.711,22.032-.049,40.847-.487Z" transform="translate(543.25 522.584)" fill="#1572b6"/>
    <path id="Path_94" data-name="Path 94" d="M1.5,0H29.12L26.608,28.36,15.28,31.566,4.015,28.359ZM23.977,5.8,6.643,5.8l.28,3.449,13.317,0L19.9,12.824H11.171l.316,3.384h8.131l-.481,4.634L15.309,21.9l-3.888-1.065-.247-2.775H7.741l.381,5.07,7.188,2.24,7.067-2.012,1.6-17.551Z" transform="translate(570.641 546.668)" fill="#f4f6f9"/>
  </g>
</svg>
