<svg xmlns="http://www.w3.org/2000/svg" width="95.601" height="82.903" viewBox="0 0 95.601 82.903">
  <g id="Group_52" data-name="Group 52" transform="translate(-388.651 -522)">
    <path id="Path_87" data-name="Path 87" d="M26.153-3.365C46.085-.2,62.616,8.465,72.107,17.956S81.868,42.3,70.38,55.949,44.876,82.3,24.328,76.961s-33.676-19-38.281-31.661S-17.112,14.783-7.621,5.292,6.221-6.531,26.153-3.365Z" transform="translate(405.131 526.695)" fill="#e34f26"/>
    <path id="Path_93" data-name="Path 93" d="M1.5,0H29.12L26.608,28.36,15.28,31.566,4.016,28.359Zm9.247,12.824-.305-3.575,13.23,0,.3-3.449-17.33,0,.918,10.535h12l-.429,4.506L15.31,21.9l-3.887-1.065-.247-2.775H7.745l.434,5.486,7.131,1.907,7.075-1.9.979-10.728H10.747Z" transform="translate(421.141 547.669)" fill="#f4f6f9"/>
  </g>
</svg>
