<svg xmlns="http://www.w3.org/2000/svg" width="98.874" height="82.881" viewBox="0 0 98.874 82.881">
  <g id="Group_50" data-name="Group 50" transform="translate(-685.014 -522.076)">
    <path id="Path_90" data-name="Path 90" d="M35.618-15.612c21.516,3.23,32.13,13.093,35.921,25.07,3.83,12.1-2.044,21.529-7.858,28.437C52.192,51.547,46.418,65.57,25.141,65.958s-40.034-8.98-46.772-17.212-7.011-39.17,7.107-52.209S14.1-18.842,35.618-15.612Z" transform="translate(711.126 538.988)" fill="#f7df1e"/>
    <path id="javascript" d="M0,0H32.087V32.087H0ZM29.459,24.435c-.234-1.464-1.187-2.694-4.015-3.841-.984-.461-2.078-.782-2.4-1.524a1.579,1.579,0,0,1-.062-.943,1.532,1.532,0,0,1,2.026-.882,2.175,2.175,0,0,1,1.3,1.2c1.382-.9,1.382-.9,2.346-1.5a5.518,5.518,0,0,0-.783-1.043,4.49,4.49,0,0,0-3.789-1.382l-.943.119a4.31,4.31,0,0,0-2.286,1.344,4.2,4.2,0,0,0,.761,5.978c1.825,1.364,4.494,1.663,4.835,2.948.321,1.564-1.163,2.066-2.628,1.885a3.52,3.52,0,0,1-2.346-1.786l-2.447,1.405a5.406,5.406,0,0,0,1.083,1.483c2.326,2.348,8.142,2.227,9.186-1.342a4.525,4.525,0,0,0,.1-2.206l.062.09Zm-12.01-9.686H14.443c0,2.591-.012,5.166-.012,7.761a12.659,12.659,0,0,1-.185,3.625c-.441.921-1.578.8-2.094.642a2.58,2.58,0,0,1-1.11-1.143,1.147,1.147,0,0,0-.17-.262l-2.44,1.5A4.729,4.729,0,0,0,10.2,28.9a5.884,5.884,0,0,0,4.288.541,3.755,3.755,0,0,0,2.421-1.886c.682-1.243.537-2.768.531-4.474.016-2.746,0-5.494,0-8.261l.005-.075Z" transform="translate(718.407 547.473)" fill="#1a1d20"/>
  </g>
</svg>
