<svg xmlns="http://www.w3.org/2000/svg" width="98.874" height="82.881" viewBox="0 0 98.874 82.881">
  <g id="Group_48" data-name="Group 48" transform="translate(-983.014 -522.076)">
    <path id="Path_92" data-name="Path 92" d="M35.618-15.612c21.516,3.23,32.13,13.093,35.921,25.07,3.83,12.1-2.044,21.529-7.858,28.437C52.192,51.547,46.418,65.57,25.141,65.958s-40.034-8.98-46.772-17.212-7.011-39.17,7.107-52.209S14.1-18.842,35.618-15.612Z" transform="translate(1009.126 538.988)" fill="#393"/>
    <path id="Path_96" data-name="Path 96" d="M17.365,36.105a2.77,2.77,0,0,1-1.387-.372l-4.417-2.613c-.659-.369-.337-.5-.12-.576a8.84,8.84,0,0,0,2-.909.334.334,0,0,1,.328.026l3.394,2.014a.437.437,0,0,0,.409,0L30.8,26.039a.417.417,0,0,0,.2-.358V10.412a.426.426,0,0,0-.206-.364L17.571,2.418a.418.418,0,0,0-.408,0L3.941,10.049a.427.427,0,0,0-.209.363V25.681a.405.405,0,0,0,.209.354l3.624,2.094c1.966.984,3.171-.175,3.171-1.339V11.715a.38.38,0,0,1,.385-.381H12.8a.383.383,0,0,1,.384.381V26.79c0,2.625-1.429,4.13-3.917,4.13a5.658,5.658,0,0,1-3.048-.829l-3.472-2a2.792,2.792,0,0,1-1.387-2.413V10.412A2.791,2.791,0,0,1,2.745,8L15.976.355a2.9,2.9,0,0,1,2.78,0L31.986,8a2.792,2.792,0,0,1,1.39,2.412V25.681a2.8,2.8,0,0,1-1.39,2.413l-13.23,7.639A2.762,2.762,0,0,1,17.365,36.105ZM28.047,21.051c0-2.858-1.932-3.62-6-4.157-4.108-.543-4.527-.824-4.527-1.786,0-.794.354-1.855,3.4-1.855,2.718,0,3.72.585,4.133,2.418a.382.382,0,0,0,.372.3H27.14a.391.391,0,0,0,.28-.122.386.386,0,0,0,.1-.295c-.266-3.156-2.363-4.627-6.6-4.627-3.773,0-6.024,1.592-6.024,4.262,0,2.9,2.239,3.7,5.86,4.054,4.333.424,4.668,1.058,4.668,1.909,0,1.479-1.187,2.109-3.975,2.109-3.5,0-4.271-.879-4.53-2.621a.384.384,0,0,0-.381-.323h-1.71a.379.379,0,0,0-.382.381c0,2.229,1.213,4.886,7,4.886C25.643,25.585,28.047,23.935,28.047,21.051Z" transform="translate(1015.084 545.465)" fill="#f4f6f9"/>
  </g>
</svg>
