<svg xmlns="http://www.w3.org/2000/svg" width="98.638" height="87.683" viewBox="0 0 98.638 87.683">
  <g id="Group_49" data-name="Group 49" transform="translate(-834.132 -522.076)">
    <path id="Path_91" data-name="Path 91" d="M25.741-4.735C45.673-1.569,79.285,19.3,81.258,29.971s-5.148,31.99-19.483,43.4S29.665,82.054,10.63,74.695s-20.33-13.072-25-30.765S-18.06,16.088-8.033,3.922,5.809-7.9,25.741-4.735Z" transform="translate(851.188 528.683)" fill="#777bb4"/>
    <path id="Path_95" data-name="Path 95" d="M13.64,14.481H11.8l-1,5.153h1.631a3.945,3.945,0,0,0,2.417-.611,3.245,3.245,0,0,0,1.07-2.041,2.231,2.231,0,0,0-.241-1.936A2.746,2.746,0,0,0,13.64,14.481Zm9.71-8.793C10.455,5.688,0,11.187,0,17.97S10.455,30.254,23.35,30.254,46.7,24.753,46.7,17.97,36.245,5.688,23.35,5.688Zm-6.343,14.5a4.722,4.722,0,0,1-1.784,1.072,8.314,8.314,0,0,1-2.5.319h-2.3l-.636,3.271H7.106L9.5,12.539h5.156a4.28,4.28,0,0,1,3.394,1.222,3.826,3.826,0,0,1,.642,3.409,5.364,5.364,0,0,1-1.685,3.016Zm7.83,1.391,1.057-5.446a1.472,1.472,0,0,0-.132-1.267,1.867,1.867,0,0,0-1.337-.339H22.3l-1.37,7.054H18.267L20.661,9.268h2.66l-.636,3.273h2.37a4.616,4.616,0,0,1,3.086.78,2.585,2.585,0,0,1,.512,2.528l-1.113,5.728ZM39.619,17.17a5.413,5.413,0,0,1-.593,1.648,5.557,5.557,0,0,1-1.092,1.368,4.748,4.748,0,0,1-1.784,1.072,8.319,8.319,0,0,1-2.5.319h-2.3l-.636,3.273H28.033l2.393-12.309h5.154a4.28,4.28,0,0,1,3.394,1.222,3.821,3.821,0,0,1,.644,3.407Zm-5.049-2.689H32.735l-1,5.153h1.631a3.938,3.938,0,0,0,2.417-.611,3.255,3.255,0,0,0,1.072-2.041,2.23,2.23,0,0,0-.243-1.936A2.746,2.746,0,0,0,34.569,14.481Z" transform="translate(860.101 547.947)" fill="#f4f6f9"/>
  </g>
</svg>
