<svg xmlns="http://www.w3.org/2000/svg" width="98.638" height="87.683" viewBox="0 0 98.638 87.683">
  <g id="Group_47" data-name="Group 47" transform="translate(-1132.132 -522.076)">
    <path id="Path_88" data-name="Path 88" d="M25.741-4.735C45.673-1.569,79.285,19.3,81.258,29.971s-5.148,31.99-19.483,43.4S29.665,82.054,10.63,74.695s-20.33-13.072-25-30.765S-18.06,16.088-8.033,3.922,5.809-7.9,25.741-4.735Z" transform="translate(1149.188 528.683)" fill="#61dafb"/>
    <path id="Path_97" data-name="Path 97" d="M21.408,17.4a3.363,3.363,0,1,1-3.364-3.364A3.364,3.364,0,0,1,21.408,17.4ZM25.392,1.314c-2.025,0-4.674,1.444-7.354,3.945C15.36,2.772,12.71,1.344,10.686,1.344a3.305,3.305,0,0,0-1.664.418C6.954,2.955,6.49,6.673,7.558,11.338,2.979,12.752,0,15.014,0,17.4s2.994,4.659,7.587,6.063c-1.059,4.683-.587,8.407,1.486,9.6a3.231,3.231,0,0,0,1.658.414c2.023,0,4.674-1.444,7.354-3.948,2.678,2.488,5.329,3.916,7.352,3.916a3.3,3.3,0,0,0,1.664-.414c2.067-1.192,2.532-4.909,1.464-9.576,4.563-1.4,7.542-3.668,7.542-6.054s-2.994-4.659-7.587-6.066c1.059-4.679.587-8.405-1.486-9.6a3.261,3.261,0,0,0-1.643-.418Zm-.008,1.64v.009a1.71,1.71,0,0,1,.839.191c1,.575,1.437,2.761,1.1,5.572-.081.692-.214,1.422-.376,2.166a35.318,35.318,0,0,0-4.674-.8A35.944,35.944,0,0,0,19.21,6.408c2.4-2.227,4.644-3.448,6.176-3.453Zm-14.7.03c1.523,0,3.782,1.216,6.183,3.43a34.594,34.594,0,0,0-3.039,3.674,34.2,34.2,0,0,0-4.683.809c-.168-.737-.293-1.45-.382-2.136-.346-2.81.081-4.995,1.074-5.577a2.2,2.2,0,0,1,.847-.2Zm7.345,4.589a29.912,29.912,0,0,1,2.046,2.353c-.662-.03-1.339-.051-2.023-.051s-1.377.015-2.046.051a28.581,28.581,0,0,1,2.023-2.354Zm.023,3.951c1.113,0,2.222.051,3.313.14q.916,1.313,1.78,2.8.839,1.444,1.532,2.928c-.463.985-.972,1.971-1.524,2.934-.572.993-1.163,1.938-1.775,2.813-1.1.095-2.206.147-3.325.147s-2.222-.053-3.313-.14c-.611-.876-1.207-1.811-1.78-2.8q-.839-1.444-1.532-2.928c.456-.988.972-1.975,1.524-2.94.572-.993,1.163-1.935,1.775-2.81,1.1-.1,2.206-.147,3.325-.147Zm-5.469.382c-.361.567-.722,1.148-1.059,1.745s-.654,1.176-.955,1.766c-.4-.987-.737-1.971-1.017-2.929.963-.226,1.978-.426,3.031-.581Zm10.922,0c1.046.155,2.054.346,3.018.582-.271.951-.609,1.929-.993,2.908-.3-.587-.617-1.178-.963-1.766s-.7-1.164-1.061-1.724Zm4.608,1.016c.728.226,1.42.477,2.069.749,2.606,1.113,4.291,2.57,4.291,3.725s-1.693,2.618-4.3,3.724c-.632.271-1.324.515-2.039.742a36.056,36.056,0,0,0-1.655-4.483,35.029,35.029,0,0,0,1.632-4.459Zm-20.152.006A35.1,35.1,0,0,0,9.618,17.41a34.816,34.816,0,0,0-1.634,4.459,21.358,21.358,0,0,1-2.061-.752C3.317,20.008,1.632,18.551,1.632,17.4s1.685-2.621,4.291-3.725C6.555,13.4,7.247,13.156,7.963,12.927Zm17.569,6.439c.4.988.737,1.974,1.017,2.931-.963.236-1.98.436-3.033.587.361-.564.722-1.146,1.061-1.742s.654-1.186.957-1.775ZM10.57,19.4c.3.59.617,1.178.963,1.768s.7,1.161,1.061,1.72c-1.046-.153-2.054-.346-3.018-.581.271-.948.611-1.929.993-2.908ZM26.96,23.89a20.785,20.785,0,0,1,.382,2.141c.346,2.81-.081,4.995-1.074,5.579a1.613,1.613,0,0,1-.847.193c-1.523,0-3.782-1.214-6.183-3.43A34.7,34.7,0,0,0,22.276,24.7a34.416,34.416,0,0,0,4.683-.812Zm-17.8.015a35.828,35.828,0,0,0,4.674.8,35.758,35.758,0,0,0,3.062,3.68c-2.4,2.231-4.652,3.453-6.183,3.453a1.782,1.782,0,0,1-.832-.2c-1-.572-1.437-2.759-1.1-5.571.081-.692.214-1.42.376-2.163Zm6.86.963c.662.03,1.339.051,2.023.051s1.377-.015,2.046-.051a28.834,28.834,0,0,1-2.023,2.354A30.5,30.5,0,0,1,16.022,24.868Z" transform="translate(1163.397 548.525)" fill="#1a1d20"/>
  </g>
</svg>
